<svg id="Layer_1" data-name="Layer 1" xmlns="http://www.w3.org/2000/svg" viewBox="0 0 129.76 114.66"><defs><style>.cls-1{fill:#07746c;}</style></defs><title>animal-spots-green</title><path class="cls-1" d="M57.72,31.52c.57-1.26,1-2.69,1.64-4,.77-1.5,2-2.7,2.85-4.12,1-1.62,1.94-2.91,1.25-4.77A6.26,6.26,0,0,0,60,15.53c-1.31-.68-2.56,0-3.73.66-.94.53-1.24.57-1.82,1.55-.42.7-.68,1.6-1.12,2.29a9.86,9.86,0,0,0-1,1.76,16.22,16.22,0,0,0-.79,2.73,7.75,7.75,0,0,0,.08,4.4,11.09,11.09,0,0,0,2.7,3.77C55.65,33.81,57.11,32.88,57.72,31.52Zm-3.51-5c1-.83,1-1.89,1.27-3a2.84,2.84,0,0,1,1-1.77c.54-.55,1-2,1.67-1.66a3.71,3.71,0,0,1,.42,5.24C57.57,26.27,55,28.89,54.21,26.56Z" transform="translate(-0.4 0)"/><path class="cls-1" d="M5.55,58.76a7.6,7.6,0,0,0-3,.21,3.75,3.75,0,0,0-1.45,2,6,6,0,0,0,0,3.25,12.41,12.41,0,0,1,.15,2,4,4,0,0,0,0,1.6A6,6,0,0,0,5,70.51a2.76,2.76,0,0,0,3.36-1.74c.2-.85,0-1.89.14-2.81A16.44,16.44,0,0,1,10,62.62a3.06,3.06,0,0,0-.44-2.76C8.66,59,6.67,58.85,5.55,58.76Zm2.3,2.64c.18.56-.32,1.25-.52,1.75a13.82,13.82,0,0,0-.68,1.59,14.6,14.6,0,0,0,0,1.61,4.34,4.34,0,0,1-.77,1.44C5.1,68.31,4,67.41,4,67a4.43,4.43,0,0,1,.06-1.49c.09-.59-.24-1.34-.14-1.89a6.92,6.92,0,0,1,.78-1.86c.31-.52.55-1.26,1.24-1.46A1.77,1.77,0,0,1,7.85,61.4Z" transform="translate(-0.4 0)"/><path class="cls-1" d="M79.14,84.11c-.1-1-.34-2-.38-3-.06-1.2.28-2.36.31-3.53,0-1.33.18-2.46-.89-3.36A4.44,4.44,0,0,0,75,73.5c-1,0-1.57.89-2.06,1.71a2.44,2.44,0,0,0-.58,1.58c0,.58.14,1.22.11,1.8a6.84,6.84,0,0,0,0,1.43,12.26,12.26,0,0,0,.46,2,5.52,5.52,0,0,0,1.59,2.68,7.93,7.93,0,0,0,3,1.38C78.66,86.24,79.23,85.16,79.14,84.11Zm-3.89-1.82A3.46,3.46,0,0,0,75,80a2,2,0,0,1,0-1.43c.14-.53-.11-1.58.45-1.6A2.62,2.62,0,0,1,77.49,80C77.22,80.94,76.55,83.45,75.25,82.29Z" transform="translate(-0.4 0)"/><path class="cls-1" d="M89.26,42.53C88.73,41.18,87,39.8,85.69,41c-.43.4-.26.67-.48,1.12a4.17,4.17,0,0,1-1.4,1.23c-1.35,1-5.46.53-5,3.36.17,1,1.91,1.62,2.69,2.1s1.64,1,2.51,1.52c1.31.74,3.12,1.58,3.93-.08.7-1.43-.42-1.71-.93-2.93a1.06,1.06,0,0,1,.59-1.43c.57-.31,1.24,0,1.83-.34C91.1,44.69,89.19,42.78,89.26,42.53Z" transform="translate(-0.4 0)"/><path class="cls-1" d="M86.52,70.33c.79.11,1.47-1.47,1.69-2.07a5.33,5.33,0,0,0,.11-3.09c-.46-1.81-2.55-3.47-4.24-4.11-1.21-.46-5.41-2-5.34.3,0,1,1.13,1.41,1.75,2.06a5.37,5.37,0,0,1,1.43,2.82c.19,1.16.34,2.73,1.24,3.52S85.34,70.13,86.52,70.33Z" transform="translate(-0.4 0)"/><path class="cls-1" d="M111,2.82c-1.43-.45-3.68.06-3.56,1.87,0,.6.37.64.59,1.11a4.41,4.41,0,0,1,.08,1.92c-.11,1.7-3.12,4.74-.51,6.18.88.49,2.54-.49,3.42-.81s1.91-.65,2.86-1c1.44-.58,3.29-1.49,2.49-3.21-.71-1.5-1.66-.77-3-1.16a1.09,1.09,0,0,1-.77-1.4c.13-.66.77-1,.91-1.69C113.93,2.73,111.16,3,111,2.82Z" transform="translate(-0.4 0)"/><path class="cls-1" d="M49.24,50.3c-1.43.17-2.69,1.88-3.05,3.19s.17,1.49,1.54,2c1.75.6,3.1-.59,4.86-.41,1.12.12,2.21,1.46,2.92,2.33.58.71,1.2,1.16.79,2-.52,1-2.15.67-3,.75s-1.53,0-1.71.83c-.13.57.91,2.21,1.37,2.54,1.3.92,3.61-.43,4.83-.95,1.48-.64,3.78-1.68,3.71-3.58s-2-3.71-3-5.16A15.42,15.42,0,0,0,56.63,51a8.52,8.52,0,0,0-2.35-1A6,6,0,0,0,49.24,50.3Z" transform="translate(-0.4 0)"/><path class="cls-1" d="M118.43,40.16a3.13,3.13,0,0,0-.84,3c.2.9.6.87,1.61.7,1.28-.2,1.73-1.39,2.88-1.86.73-.3,1.86.18,2.58.48s1.13.32,1.14.94c0,.81-1.11,1.14-1.6,1.46s-1,.5-.79,1.08c.11.4,1.3,1.08,1.69,1.12,1.12.14,2.11-1.46,2.69-2.19.71-.88,1.79-2.29,1.12-3.45s-2.47-1.64-3.57-2.21a10.61,10.61,0,0,0-2.11-1.1,5.74,5.74,0,0,0-1.78.16A4.22,4.22,0,0,0,118.43,40.16Z" transform="translate(-0.4 0)"/><path class="cls-1" d="M88.63,98.5a6,6,0,0,0-.52-3c-.38-.93-.9-.77-1.74-1.17-1.74-.82-1.88.69-2.87,1.76s-2.54,1.71-3.75.46a3.81,3.81,0,0,1-1.32-3.65c.21-.78,1.89-3.36-.06-3.21-.66,0-.9.71-1.08,1.2a10.92,10.92,0,0,1-1,1.72,3.12,3.12,0,0,0,.28,3.88,10.32,10.32,0,0,0,3.22,3.06,9.3,9.3,0,0,0,2.4.74,14.29,14.29,0,0,0,2.43.64A4.46,4.46,0,0,0,88.63,98.5Z" transform="translate(-0.4 0)"/><path class="cls-1" d="M63.88,62.54a3.14,3.14,0,0,0-1.39,2.73c0,1.35.71,2.64.91,4s.08,3.51,1,3.77c.38.89,1.88,1,2.65.83a12.43,12.43,0,0,0,1.62-.56,12.72,12.72,0,0,0,1.4-.8c1.07-.52,2.27-.53,2.53-1.89a3.73,3.73,0,0,0-.7-2.67,6.84,6.84,0,0,0-1.34-1c-.2-.13-.38-.33-.6-.47s-.72-.3-1.06-.51c-1-.61-.74-2.49-1.56-3.28A3.17,3.17,0,0,0,63.88,62.54Zm3.18,4.58c0,.83,1,2.17,1.29,3,.84,2.31-3.27.66-3.16-1.33a9.06,9.06,0,0,1,.29-2.09c.1-.44.3-1.91.58-2.1A3.55,3.55,0,0,1,67.06,67.12Z" transform="translate(-0.4 0)"/><path class="cls-1" d="M54.71,5.34a8.7,8.7,0,0,0,.34,3.27,4.17,4.17,0,0,0,2.21,1.53A6.67,6.67,0,0,0,60.85,10a12.87,12.87,0,0,1,2.2-.24,4.52,4.52,0,0,0,1.76-.09,6.64,6.64,0,0,0,2.9-4.12,3,3,0,0,0-2-3.66c-1-.18-2.09.08-3.11,0-1.28-.17-2.5-1-3.75-1.53a3.38,3.38,0,0,0-3,.59C54.82,1.91,54.78,4.11,54.71,5.34Zm2.85-2.62c.6-.22,1.39.3,1.94.51a13.47,13.47,0,0,0,1.79.69,17.37,17.37,0,0,0,1.77,0,4.71,4.71,0,0,1,1.62.79c.6.82-.35,2-.82,2.07a4.76,4.76,0,0,1-1.64,0c-.66-.08-1.47.31-2.08.22a7.36,7.36,0,0,1-2.09-.8c-.59-.32-1.42-.56-1.66-1.31A2,2,0,0,1,57.56,2.72Z" transform="translate(-0.4 0)"/><path class="cls-1" d="M24,53.46c-.42-.54-1.8,0-2.3.27a4.55,4.55,0,0,0-1.94,1.85c-.8,1.4-.51,3.68.15,5.11.47,1,2.13,4.51,3.49,3,.62-.67.15-1.56.16-2.34a4.59,4.59,0,0,1,.82-2.61c.58-.83,1.44-1.89,1.36-2.92S24.65,54.31,24,53.46Z" transform="translate(-0.4 0)"/><path class="cls-1" d="M45.23,102.89c1.33.52,3.71-2.89,4.6-3.72C51,98.07,53.88,96,53.43,94c-.41-1.86-5.39-.24-6.73.27-2.41.9-3.69,1.72-4.76,4.12C41,100.48,43.35,102.34,45.23,102.89Z" transform="translate(-0.4 0)"/><path class="cls-1" d="M55.69,71.91a3.35,3.35,0,0,0-1.92-2.7c-.88-.43-1.12-.09-1.66.86-.69,1.2,0,2.37-.39,3.64-.25.81-1.39,1.42-2.13,1.82s-1,.72-1.55.31-.19-1.68-.13-2.3.22-1.13-.37-1.38a3.33,3.33,0,0,0-2.07.65c-.86.82-.2,2.72,0,3.69.26,1.18.69,3,2.11,3.24s3-.94,4.22-1.46a11.88,11.88,0,0,0,2.33-1,6.13,6.13,0,0,0,1.06-1.59A4.49,4.49,0,0,0,55.69,71.91Z" transform="translate(-0.4 0)"/><path class="cls-1" d="M59,92.42a5.66,5.66,0,0,0,2.39-1.62c.67-.7.32-1.09.34-2C61.76,87,60.37,87.44,59,87s-2.5-1.55-1.87-3.11a3.64,3.64,0,0,1,2.68-2.59c.76-.12,3.69.33,2.79-1.32-.3-.56-1-.51-1.48-.47a10.15,10.15,0,0,1-1.91-.21A3,3,0,0,0,56,81.06a9.88,9.88,0,0,0-1.41,4,8.91,8.91,0,0,0,.29,2.4,13.29,13.29,0,0,0,.4,2.38A4.28,4.28,0,0,0,59,92.42Z" transform="translate(-0.4 0)"/><path class="cls-1" d="M40.07,30.55c0,.6.67,1,1.23,1.27s1.13,0,1.65.13a9,9,0,0,1,2.78,1.62c.53.47.58.8,0,1.38a4.64,4.64,0,0,1-1.36.93c-1,.27-2.54-.49-3.3-.93A10.37,10.37,0,0,1,38,32.71a3.5,3.5,0,0,1-.37-3.79,14.61,14.61,0,0,1,1.44-2.78,5.23,5.23,0,0,1,2.65-2.08,3.51,3.51,0,0,1,2.92.71c.53.37,1.08.73,1.64,1.08s1.4.49,1.46,1.11c.06.43-1.08,1.23-1.53,1.33-.75.17-1.84-.44-2.48-.66-1-.34-.94-.3-1.87.35a3.19,3.19,0,0,0-.72.63A7,7,0,0,0,40.07,30.55Z" transform="translate(-0.4 0)"/><path class="cls-1" d="M15.59,6.43c.85-1,.63-2.9.06-4s-1-.89-2.23-.35c-1.53.68-1.69,2.31-3,3.27-.82.61-2.37.39-3.37.25-.83-.11-1.52,0-1.74-.8-.27-1,1-1.78,1.53-2.34s1-.94.62-1.61A4.05,4.05,0,0,0,5,0C3.57.2,2.86,2.52,2.38,3.62,1.78,5,.89,7.07,2.12,8.28S5.73,9.53,7.28,9.87a13.31,13.31,0,0,0,3,.68,7.29,7.29,0,0,0,2.17-.79A5.38,5.38,0,0,0,15.59,6.43Z" transform="translate(-0.4 0)"/><path class="cls-1" d="M58.23,42.75c1.22-1.29,1.87-4-.12-4.78-.67-.28-.88.06-1.5,0a5.43,5.43,0,0,1-2.09-.93c-1.75-1-3.4-5.83-6.31-3.81-1,.68-.82,3-1,4.08s-.31,2.37-.41,3.59c-.15,1.84-.15,4.29,2.11,4.34,2,0,1.7-1.35,2.8-2.54a1.3,1.3,0,0,1,1.9-.09c.64.49.69,1.37,1.32,1.87C56.77,45.92,57.92,42.8,58.23,42.75Z" transform="translate(-0.4 0)"/><path class="cls-1" d="M118.77,36.89A6.89,6.89,0,0,0,120,34.58a3.35,3.35,0,0,0-.77-2,5.26,5.26,0,0,0-2.43-1.52,11.05,11.05,0,0,1-1.56-.84c-.43-.28-.81-.68-1.2-.73a5.37,5.37,0,0,0-3.77,1.42,2.43,2.43,0,0,0-.29,3.33c.54.55,1.41.89,2,1.43a13.69,13.69,0,0,1,1.79,2.69,2.72,2.72,0,0,0,2.27,1C117.17,39.11,118.18,37.68,118.77,36.89Zm-3,.46c-.5-.12-.78-.82-1-1.21a12.33,12.33,0,0,0-.88-1.26c-.32-.35-.85-.49-1.18-.78a4.11,4.11,0,0,1-.71-1.25c0-.81,1.15-1.19,1.47-1a3.65,3.65,0,0,1,1.08.74c.4.35,1.11.46,1.48.79a6.39,6.39,0,0,1,1,1.46c.24.48.68,1,.5,1.62A1.56,1.56,0,0,1,115.72,37.35Z" transform="translate(-0.4 0)"/><path class="cls-1" d="M76.08,47.45a6.34,6.34,0,0,0-3-1.14c-1.08-.17-1.21.4-2,1-1.72,1.16-.4,2.12,0,3.63.5,1.66.19,3.29-1.64,3.72-1.55.36-3,.31-4.09-.79-.61-.62-2.08-3.6-3-1.71-.32.64.15,1.22.52,1.66a12.3,12.3,0,0,1,1,1.88,3.34,3.34,0,0,0,3.73,1.88,11.09,11.09,0,0,0,4.61-1.3,10.11,10.11,0,0,0,2-1.81,15,15,0,0,0,1.92-1.9A4.79,4.79,0,0,0,76.08,47.45Z" transform="translate(-0.4 0)"/><path class="cls-1" d="M34.41,73.48A7.84,7.84,0,0,0,37,74.92a3.71,3.71,0,0,0,2.25-.82A5.87,5.87,0,0,0,41,71.43a11.9,11.9,0,0,1,1-1.72c.33-.47.78-.89.84-1.33a5.9,5.9,0,0,0-1.5-4.22,2.7,2.7,0,0,0-3.69-.4c-.63.59-1,1.55-1.64,2.22a15.92,15.92,0,0,1-3,1.94,3,3,0,0,0-1.13,2.5C32,71.64,33.54,72.8,34.41,73.48ZM34,70.07c.15-.56.94-.86,1.38-1.15A15.17,15.17,0,0,0,36.76,68c.4-.36.56-.94.9-1.3a4.23,4.23,0,0,1,1.41-.77c.89,0,1.29,1.31,1.08,1.66a4.18,4.18,0,0,1-.86,1.19c-.39.43-.53,1.23-.91,1.63a6.79,6.79,0,0,1-1.65,1.1c-.53.26-1.14.74-1.81.52A1.75,1.75,0,0,1,34,70.07Z" transform="translate(-0.4 0)"/><path class="cls-1" d="M27.31,99.61a5.89,5.89,0,0,0-2.39,1.86c-.66.78-.27,1.17-.22,2.11.08,1.94,1.5,1.35,2.92,1.73,1.58.42,2.73,1.45,2.18,3.13a3.84,3.84,0,0,1-2.63,2.9c-.79.18-3.89-.1-2.84,1.57.36.57,1.06.47,1.59.4a11.2,11.2,0,0,1,2,.08,3.15,3.15,0,0,0,3.33-2.07A10.47,10.47,0,0,0,32.47,107,9.36,9.36,0,0,0,32,104.5a14.13,14.13,0,0,0-.59-2.47A4.48,4.48,0,0,0,27.31,99.61Z" transform="translate(-0.4 0)"/><path class="cls-1" d="M21,98.17c.67-.74,1.27-1.62,2-2.36s2-1.41,2.87-2.19,2-1.56,1.93-3a4.56,4.56,0,0,0-1.69-2.92c-.74-.75-1.76-.57-2.7-.37a2.46,2.46,0,0,0-1.6.65c-.44.39-.82.94-1.28,1.32a7.65,7.65,0,0,0-1.08,1A13,13,0,0,0,18.35,92a5.6,5.6,0,0,0-.93,3,8.16,8.16,0,0,0,1,3.19C19.11,99.27,20.32,99,21,98.17ZM19.74,94c.84-.35,1.12-1.07,1.55-1.8a2,2,0,0,1,1.07-1c.5-.26,1.12-1.17,1.52-.77A2.69,2.69,0,0,1,23,94.11C22.11,94.54,19.76,95.76,19.74,94Z" transform="translate(-0.4 0)"/><path class="cls-1" d="M126.49,93.38c0-2.11.67-3.93.07-6a4,4,0,0,0-1.5-2.63,3.66,3.66,0,0,0-2.67-.23,8.18,8.18,0,0,0-3.65,4c-.6,1.75,1.24,3.29,2.53,4.29a9.92,9.92,0,0,0,3,1.64A1.71,1.71,0,0,0,126.49,93.38Z" transform="translate(-0.4 0)"/><path class="cls-1" d="M95.69,66a4,4,0,0,0,3.56-1.43c1.06-1.3,1.51-3.07,2.44-4.5s2.82-3.39,2.15-4.41c.38-1.14-1-2.46-1.81-3a14.94,14.94,0,0,0-2-.81,15.79,15.79,0,0,0-2-.4c-1.44-.4-2.58-1.37-3.95-.31a4.7,4.7,0,0,0-1.54,3.09,8.31,8.31,0,0,0,.44,2c.08.29.1.63.18,1,.14.53.43.87.58,1.35.4,1.37-1.36,2.95-1.24,4.37A4,4,0,0,0,95.69,66Zm.78-6.94c.73-.74.84-2.86,1.23-3.86,1.12-2.86,3.63,2.07,1.88,3.86a11.53,11.53,0,0,1-2,1.73c-.45.33-1.85,1.55-2.27,1.5C95,61.33,95.87,59.66,96.47,59.05Z" transform="translate(-0.4 0)"/><path class="cls-1" d="M23.67,34c1.73.37,4.31-.47,4-2.58-.11-.7-.51-.71-.81-1.24a5.08,5.08,0,0,1-.3-2.24c-.05-2,3.15-5.9-.06-7.31-1.08-.48-2.93.84-3.93,1.31s-2.17,1-3.25,1.52c-1.63.83-3.7,2.1-2.57,4,1,1.69,2,.73,3.6,1a1.31,1.31,0,0,1,1.06,1.57c-.08.78-.8,1.28-.89,2.07C20.24,34.45,23.46,33.8,23.67,34Z" transform="translate(-0.4 0)"/><path class="cls-1" d="M46.73,113.84c.88-.58,1.73-1.33,2.67-1.89,1.11-.65,2.4-.92,3.52-1.48,1.29-.65,2.44-1.08,2.75-2.55a4.76,4.76,0,0,0-1-3.44c-.56-1-1.65-1-2.67-1.09a2.57,2.57,0,0,0-1.8.25c-.56.28-1.09.75-1.65,1a7.21,7.21,0,0,0-1.37.73,13.49,13.49,0,0,0-1.62,1.43,5.81,5.81,0,0,0-1.74,2.86,8.45,8.45,0,0,0,.19,3.53C44.46,114.47,45.78,114.46,46.73,113.84Zm-.23-4.62c1-.14,1.42-.8,2.06-1.44a2.14,2.14,0,0,1,1.36-.74c.57-.13,1.44-.9,1.75-.38a2.83,2.83,0,0,1-1.87,3.54C48.78,110.41,46.06,111,46.5,109.22Z" transform="translate(-0.4 0)"/><path class="cls-1" d="M115.47,22.55a6.36,6.36,0,0,0,2.53,2c1,.47,1.27,0,2.22-.32,2-.6,1-1.9,1-3.46,0-1.72.79-3.18,2.65-3,1.58.11,3,.58,3.66,1.95.39.76.91,4,2.35,2.5.49-.52.21-1.21,0-1.73a11.58,11.58,0,0,1-.43-2.09,3.33,3.33,0,0,0-3-2.87,11.21,11.21,0,0,0-4.75-.12,10,10,0,0,0-2.43,1.14,13.75,13.75,0,0,0-2.38,1.24A4.75,4.75,0,0,0,115.47,22.55Z" transform="translate(-0.4 0)"/><path class="cls-1" d="M77.29,25.85a8.43,8.43,0,0,0,.41-3.12A4,4,0,0,0,76,20.81a6.41,6.41,0,0,0-3.37-.68,13.08,13.08,0,0,1-2.11-.27,4.3,4.3,0,0,0-1.66-.3,6.35,6.35,0,0,0-3.61,3.19,2.91,2.91,0,0,0,1.08,3.85c.84.39,2,.4,2.88.75,1.16.44,2.1,1.53,3.15,2.25a3.21,3.21,0,0,0,3,.12C76.43,29,77,27,77.29,25.85Zm-3.23,1.81c-.62.07-1.23-.59-1.7-.91a13,13,0,0,0-1.51-1,14.66,14.66,0,0,0-1.66-.38,4.74,4.74,0,0,1-1.33-1.1c-.37-.89.79-1.82,1.23-1.75a4.9,4.9,0,0,1,1.53.38c.59.22,1.43,0,2,.26a7.17,7.17,0,0,1,1.77,1.2c.47.43,1.19.84,1.25,1.6A1.87,1.87,0,0,1,74.06,27.66Z" transform="translate(-0.4 0)"/><path class="cls-1" d="M69.91,15.67a6.39,6.39,0,0,0,3.16.73c1.09,0,1.15-.57,1.9-1.24,1.56-1.38.1-2.16-.54-3.6C73.72,10,73.8,8.3,75.56,7.63c1.5-.57,3-.72,4.19.23.69.53,2.55,3.3,3.23,1.29.23-.68-.33-1.2-.75-1.58a12.75,12.75,0,0,1-1.29-1.73,3.37,3.37,0,0,0-4-1.37,11.14,11.14,0,0,0-4.41,1.92A10.06,10.06,0,0,0,70.8,8.47a16,16,0,0,0-1.66,2.15C68.21,12.51,69.09,15.08,69.91,15.67Z" transform="translate(-0.4 0)"/><path class="cls-1" d="M64.49,94.68c-1,.75-1.85,2.54-.56,3.4.44.28.63.07,1.07.17a3.81,3.81,0,0,1,1.35.93c1.11,1,1.63,4.58,4,3.54.78-.35,1-2,1.21-2.75s.54-1.64.77-2.49c.35-1.28.68-3-.91-3.35-1.39-.3-1.38.73-2.32,1.42a.94.94,0,0,1-1.36-.19c-.38-.43-.3-1.06-.68-1.49C66,92.64,64.72,94.68,64.49,94.68Z" transform="translate(-0.4 0)"/><path class="cls-1" d="M110.5,103.59c-.65-.38-1.54.13-2.13.61s-.62,1.28-1.11,1.76a11.72,11.72,0,0,1-3.44,2.12c-.83.3-1.22.17-1.52-.84a6.25,6.25,0,0,1-.23-2c.27-1.22,2-2.52,3-3.1a12.9,12.9,0,0,1,4.28-2.08,4.43,4.43,0,0,1,4.41,1.83,18.7,18.7,0,0,1,2.23,3.24,6.58,6.58,0,0,1,.74,4.16,4.37,4.37,0,0,1-2.51,2.81c-.73.37-1.45.77-2.16,1.18s-1.37,1.27-2.09,1c-.52-.19-.72-1.92-.57-2.47.26-.94,1.57-1.79,2.2-2.36.93-.86.87-.87.71-2.28a3.73,3.73,0,0,0-.28-1.16A8.94,8.94,0,0,0,110.5,103.59Z" transform="translate(-0.4 0)"/><path class="cls-1" d="M4.68,46c-.65,1.52-.33,4.06,1.68,4.12.67,0,.74-.34,1.29-.53a4.79,4.79,0,0,1,2.12.12c1.87.31,4.9,4,6.77,1.24.63-.92-.27-2.86-.52-3.87s-.52-2.17-.83-3.27c-.48-1.65-1.29-3.79-3.28-3.08-1.73.61-1,1.74-1.59,3.14a1.22,1.22,0,0,1-1.63.7c-.72-.21-1-1-1.77-1.19C4.9,42.76,4.93,45.85,4.68,46Z" transform="translate(-0.4 0)"/><path class="cls-1" d="M96.58,96.88c-1-.44-3,2.16-3.69,2.79-1,.82-3.26,2.36-3,4s4.2.33,5.27,0c1.9-.65,2.93-1.25,3.83-3.11C99.82,98.87,98,97.35,96.58,96.88Z" transform="translate(-0.4 0)"/><path class="cls-1" d="M96.79,13.23a6.35,6.35,0,0,0-3.07-.85c-1.07-.07-1.15.51-1.91,1.13-1.58,1.29-.2,2.12.37,3.55.64,1.59.49,3.21-1.27,3.8-1.49.49-2.92.58-4.09-.41-.65-.55-2.36-3.34-3.1-1.4-.26.66.26,1.19.66,1.58a11.19,11.19,0,0,1,1.18,1.75,3.32,3.32,0,0,0,3.84,1.51,11.18,11.18,0,0,0,4.4-1.69,9.87,9.87,0,0,0,1.8-2,14.31,14.31,0,0,0,1.72-2A4.71,4.71,0,0,0,96.79,13.23Z" transform="translate(-0.4 0)"/><path class="cls-1" d="M122.15,106.23c-.71,0-1.15,1.48-1.28,2a4.75,4.75,0,0,0,.25,2.76c.61,1.56,2.65,2.8,4.23,3.19,1.12.27,5,1.19,4.72-.86-.15-.94-1.16-1.13-1.79-1.64a4.87,4.87,0,0,1-1.59-2.35c-.29-1-.6-2.4-1.48-3S123.22,106.29,122.15,106.23Z" transform="translate(-0.4 0)"/><path class="cls-1" d="M120.3,68.67a3.16,3.16,0,0,0-2.69,1.61c-.48.8-.17,1,.68,1.63,1.08.74,2.24.19,3.41.65.74.29,1.23,1.42,1.56,2.14s.6,1,.17,1.49-1.61,0-2.19,0-1-.29-1.33.24a3.26,3.26,0,0,0,.46,2c.72.88,2.56.4,3.49.27,1.14-.16,2.91-.43,3.22-1.75S126.42,74,126,72.8a10.84,10.84,0,0,0-.77-2.27,6.06,6.06,0,0,0-1.42-1.12A4.29,4.29,0,0,0,120.3,68.67Z" transform="translate(-0.4 0)"/><path class="cls-1" d="M92.25,109.46c-.39-1.11-3.77-.77-4.76-.89-1.31-.15-4.12-.85-5.14.51s2.71,3.48,3.74,4c1.84,1,3,1.38,5.1.77C93,113.37,92.91,110.92,92.25,109.46Z" transform="translate(-0.4 0)"/><path class="cls-1" d="M11.24,84a9.32,9.32,0,0,0-2.77-2.13,4.43,4.43,0,0,0-2.79.58c-1.18.57-1.78,1.73-2.53,2.86a14.13,14.13,0,0,1-1.42,1.87c-.47.5-1.08.92-1.22,1.42a7,7,0,0,0,1.05,5.25A3.24,3.24,0,0,0,5.86,95c.84-.59,1.47-1.67,2.32-2.35,1.07-.87,2.63-1.17,3.92-1.78a3.55,3.55,0,0,0,1.75-2.76C13.81,86.63,12.14,85,11.24,84Zm-.06,4.11c-.27.63-1.25.85-1.82,1.12a15.52,15.52,0,0,0-1.84.88c-.53.35-.82,1-1.28,1.38a5.32,5.32,0,0,1-1.8.67c-1.06-.14-1.31-1.77-1-2.15a5.14,5.14,0,0,1,1.21-1.26C5.2,88.34,5.5,87.43,6,87a8.25,8.25,0,0,1,2.14-1c.68-.22,1.47-.68,2.23-.31A2.07,2.07,0,0,1,11.18,88.15Z" transform="translate(-0.4 0)"/><path class="cls-1" d="M97.76,84.37c-.27-1.1-.72-2.23-.94-3.39-.26-1.35-.06-2.75-.23-4.08-.19-1.54-.2-2.86-1.58-3.71a5.08,5.08,0,0,0-3.81-.27c-1.19.22-1.65,1.29-2.08,2.3a2.83,2.83,0,0,0-.4,1.91c.09.66.36,1.37.43,2a7.64,7.64,0,0,0,.24,1.64A13.49,13.49,0,0,0,90.25,83a6.25,6.25,0,0,0,2.26,2.79,9.06,9.06,0,0,0,3.63,1.08C97.57,86.89,98.05,85.55,97.76,84.37ZM93,82.93a4,4,0,0,0-.7-2.61A2.34,2.34,0,0,1,92,78.69c.08-.63-.38-1.79.26-1.91A3,3,0,0,1,95.19,80C95,81.06,94.69,84,93,82.93Z" transform="translate(-0.4 0)"/><path class="cls-1" d="M69.86,109.22c-.44-1.17-4-.73-5.08-.83-1.39-.12-4.4-.8-5.45.67s3,3.63,4.08,4.21c2,1,3.25,1.4,5.44.69C70.74,113.35,70.59,110.75,69.86,109.22Z" transform="translate(-0.4 0)"/><path class="cls-1" d="M4.33,109.67c-.48,1.34-.08,3.49,1.64,3.45.57,0,.62-.34,1.07-.52a4.18,4.18,0,0,1,1.83,0c1.61.17,4.38,3.13,5.84.71.5-.81-.37-2.43-.64-3.27s-.55-1.83-.87-2.75c-.5-1.39-1.3-3.18-3-2.48-1.45.62-.79,1.54-1.2,2.77a1.06,1.06,0,0,1-1.36.69c-.62-.15-.95-.78-1.57-.93C4.35,106.89,4.53,109.53,4.33,109.67Z" transform="translate(-0.4 0)"/><path class="cls-1" d="M53.61,9c-1.45-1.85-2.06-3.94-4-5.39a4.47,4.47,0,0,0-3.1-1.32A4,4,0,0,0,44,3.86a9,9,0,0,0-.56,6c.64,1.95,3.32,2.08,5.13,2.09a11.5,11.5,0,0,0,3.73-.54A1.9,1.9,0,0,0,53.61,9Z" transform="translate(-0.4 0)"/><path class="cls-1" d="M126.79.15c-.84.24-1.7.63-2.6.83s-2.13.14-3.16.31c-1.18.19-2.2.24-2.82,1.33a4,4,0,0,0-.1,3c.21.91,1,1.24,1.85,1.54a2.14,2.14,0,0,0,1.49.25c.52-.09,1.06-.32,1.57-.39a6.68,6.68,0,0,0,1.26-.24A10,10,0,0,0,125.93,6,4.94,4.94,0,0,0,128,4.18a7.07,7.07,0,0,0,.73-2.85C128.75.22,127.7-.1,126.79.15Zm-1,3.73a3.12,3.12,0,0,0-2,.63,1.82,1.82,0,0,1-1.26.25c-.49,0-1.37.35-1.49-.14a2.35,2.35,0,0,1,2.37-2.34C124.31,2.37,126.63,2.54,125.82,3.88Z" transform="translate(-0.4 0)"/><path class="cls-1" d="M15.69,77.43c-.11.9,1.73,1.64,2.42,1.87a6,6,0,0,0,3.53,0c2.05-.59,3.89-3,4.57-5,.49-1.39,2.15-6.24-.5-6.1-1.2.07-1.58,1.33-2.3,2.06a6.09,6.09,0,0,1-3.18,1.72c-1.32.25-3.11.47-4,1.52S15.89,76.07,15.69,77.43Z" transform="translate(-0.4 0)"/><path class="cls-1" d="M98.37,5.3a6.74,6.74,0,0,0-1.79-2.85C95.8,1.64,95.32,2,94.28,2,92.13,1.85,92.62,3.48,92,5c-.64,1.69-1.91,2.85-3.7,2.05-1.52-.67-2.7-1.63-2.9-3.23C85.32,2.94,86-.45,84,.52c-.66.33-.63,1.12-.61,1.71a12.39,12.39,0,0,1-.32,2.21A3.49,3.49,0,0,0,85,8.35a11.59,11.59,0,0,0,4.64,1.82,10.62,10.62,0,0,0,2.8-.24,15.76,15.76,0,0,0,2.79-.37C97.29,8.86,98.53,6.33,98.37,5.3Z" transform="translate(-0.4 0)"/><path class="cls-1" d="M31.56,44.59c.54-.46.37-1.42.14-2.09s-.95-1-1.22-1.56a10.83,10.83,0,0,1-.78-3.74c0-.83.23-1.14,1.22-1.08a5.75,5.75,0,0,1,1.9.45c1,.62,1.6,2.62,1.82,3.65a12.31,12.31,0,0,1,.47,4.48,4.17,4.17,0,0,1-3,3.34,18,18,0,0,1-3.59,1,6.22,6.22,0,0,1-3.94-.68,4.15,4.15,0,0,1-1.71-3.13c-.09-.76-.22-1.53-.36-2.29s-.69-1.63-.18-2.18c.33-.39,1.93,0,2.38.28.75.53,1.09,2,1.4,2.71.46,1.11.49,1.06,1.8,1.37A3.69,3.69,0,0,0,29,45.2,8.19,8.19,0,0,0,31.56,44.59Z" transform="translate(-0.4 0)"/><path class="cls-1" d="M81.58,28.15c-1.17.71-1.58,2.7-1.36,4s.74,1.22,2.12,1.07c1.75-.18,2.45-1.76,4-2.3,1-.35,2.5.38,3.46.84.79.38,1.51.53,1.47,1.37,0,1.09-1.59,1.46-2.28,1.85s-1.33.61-1.15,1.41c.12.54,1.68,1.55,2.21,1.65,1.49.27,3-1.82,3.8-2.76,1-1.15,2.61-3,1.78-4.59S92.47,28.26,91,27.4a15,15,0,0,0-2.77-1.65,7.69,7.69,0,0,0-2.43.09A5.69,5.69,0,0,0,81.58,28.15Z" transform="translate(-0.4 0)"/><path class="cls-1" d="M42.16,88.17c.71-1.45.53-3.93-1.42-4.1-.66-.06-.75.29-1.29.45a4.86,4.86,0,0,1-2.06-.23c-1.81-.4-4.56-4.11-6.53-1.56-.66.86.11,2.8.31,3.8s.38,2.14.64,3.22c.38,1.63,1.05,3.76,3,3.18,1.71-.51,1.09-1.64,1.71-3a1.21,1.21,0,0,1,1.63-.6c.68.25,1,1,1.66,1.25C41.77,91.32,41.9,88.31,42.16,88.17Z" transform="translate(-0.4 0)"/><path class="cls-1" d="M113.27,25.67c1-.74,1.23-2.6.93-3.76s-.78-1.06-2-.82c-1.59.31-2.1,1.81-3.52,2.44-.91.4-2.33-.15-3.25-.5-.75-.28-1.43-.36-1.46-1.13,0-1,1.35-1.47,2-1.88s1.16-.67.94-1.38a3.94,3.94,0,0,0-2.16-1.34c-1.39-.13-2.57,1.9-3.26,2.83-.86,1.14-2.16,2.94-1.27,4.36s3.15,2,4.54,2.62a13.44,13.44,0,0,0,2.67,1.3,7.44,7.44,0,0,0,2.22-.28A5.24,5.24,0,0,0,113.27,25.67Z" transform="translate(-0.4 0)"/><path class="cls-1" d="M30.28,13.77c-1.47.91-2.73,3.26-1.07,4.53.56.42.85.16,1.42.32A5.27,5.27,0,0,1,32.37,20c1.4,1.39,1.77,6.31,5,5.14,1.1-.4,1.5-2.6,1.9-3.61s.87-2.15,1.26-3.27c.59-1.7,1.2-4-.92-4.61-1.84-.52-1.93.86-3.25,1.71A1.28,1.28,0,0,1,34.55,15c-.48-.62-.31-1.46-.78-2.08C32.43,11.15,30.58,13.8,30.28,13.77Z" transform="translate(-0.4 0)"/><path class="cls-1" d="M108,50.92c-.17-1.15-.53-2.36-.66-3.58-.14-1.42.18-2.84.13-4.24,0-1.6,0-3-1.29-4a5.36,5.36,0,0,0-3.92-.63c-1.24.12-1.82,1.18-2.34,2.19a2.85,2.85,0,0,0-.59,1.94c0,.69.25,1.45.26,2.14a7.56,7.56,0,0,0,.1,1.71,14.47,14.47,0,0,0,.69,2.31,6.52,6.52,0,0,0,2.08,3.09,9.54,9.54,0,0,0,3.65,1.44C107.61,53.5,108.22,52.17,108,50.92ZM103.25,49a4.07,4.07,0,0,0-.49-2.76,2.41,2.41,0,0,1-.11-1.7c.14-.65-.24-1.89.43-2a3.15,3.15,0,0,1,2.7,3.54C105.52,47.26,104.9,50.3,103.25,49Z" transform="translate(-0.4 0)"/><path class="cls-1" d="M35.13.23c-1-.77-3.8,1.48-4.75,2-1.25.61-4.15,1.61-4.28,3.4S30.52,7.12,31.76,7c2.23-.15,3.5-.51,5-2.25C38,3.28,36.56,1.15,35.13.23Z" transform="translate(-0.4 0)"/><path class="cls-1" d="M110.32,65.84c-.25-.6-1.14-.71-1.79-.69s-1.1.56-1.7.63a9.9,9.9,0,0,1-3.48-.33c-.74-.23-.94-.53-.61-1.38a5.18,5.18,0,0,1,.91-1.54c.82-.7,2.73-.67,3.69-.58a11.29,11.29,0,0,1,4,.81,3.84,3.84,0,0,1,2.09,3.58,15.37,15.37,0,0,1-.15,3.4A5.64,5.64,0,0,1,111.66,73a3.79,3.79,0,0,1-3.2.64c-.7-.13-1.41-.23-2.11-.32s-1.62.16-1.95-.43c-.26-.4.5-1.71.89-2,.67-.51,2-.41,2.76-.48,1.1-.1,1.06-.14,1.69-1.2a3.5,3.5,0,0,0,.41-1A7.46,7.46,0,0,0,110.32,65.84Z" transform="translate(-0.4 0)"/><path class="cls-1" d="M118,58.19c1,.2,2.07.27,3.09.53,1.19.31,2.24,1,3.38,1.38,1.31.43,2.38.92,3.59.13a4.53,4.53,0,0,0,1.68-3c.27-1-.41-1.82-1.07-2.55s-.6-.79-1.39-1.05c-.57-.18-1.24-.23-1.8-.43A6.86,6.86,0,0,0,124,52.8a11.64,11.64,0,0,0-2.06-.13,5.63,5.63,0,0,0-3.12.76,8.14,8.14,0,0,0-2.26,2.51C116,57.08,116.92,58,118,58.19Zm3-3.29a3.59,3.59,0,0,0,2.37.43,2.06,2.06,0,0,1,1.41.42c.48.3,1.59.37,1.45.93a2.71,2.71,0,0,1-3.67,1.12C121.69,57.25,119.42,55.84,121,54.9Z" transform="translate(-0.4 0)"/><path class="cls-1" d="M12.7,35.08a3.07,3.07,0,0,0-.78-2.9c-.91-.95-2.25-1.46-3.27-2.32s-2.37-2.51-3.23-2.08c-.85-.41-2,.52-2.47,1.13a11,11,0,0,0-.81,1.47,10.15,10.15,0,0,0-.5,1.5C1.19,33,.33,33.75,1,34.92A3.63,3.63,0,0,0,3.29,36.4a6.48,6.48,0,0,0,1.62-.15c.23,0,.5,0,.75,0,.43-.06.72-.25,1.11-.32,1.1-.19,2.17,1.33,3.28,1.37A3.12,3.12,0,0,0,12.7,35.08ZM7.38,33.82c-.51-.63-2.15-.92-2.89-1.31-2.12-1.14,2-2.63,3.18-1.1a9.55,9.55,0,0,1,1.16,1.71c.21.38,1,1.59.95,1.91A3.42,3.42,0,0,1,7.38,33.82Z" transform="translate(-0.4 0)"/><path class="cls-1" d="M10.41,23.14c.93-.63,1.82-1.44,2.82-2,1.17-.72,2.53-1,3.72-1.64,1.36-.7,2.58-1.17,2.89-2.75a5.08,5.08,0,0,0-1.07-3.64c-.61-1-1.77-1.08-2.85-1.13a2.8,2.8,0,0,0-1.92.3c-.59.3-1.15.81-1.74,1.1a7.2,7.2,0,0,0-1.44.79,13,13,0,0,0-1.71,1.54,6.36,6.36,0,0,0-1.82,3.08,9.14,9.14,0,0,0,.26,3.74C8,23.84,9.41,23.82,10.41,23.14Zm-.31-4.92c1-.16,1.5-.87,2.17-1.56a2.34,2.34,0,0,1,1.43-.8c.62-.14,1.53-1,1.87-.43a3,3,0,0,1-1.94,3.79C12.54,19.46,9.65,20.17,10.1,18.22Z" transform="translate(-0.4 0)"/><path class="cls-1" d="M65.16,45.17c2.41-1.68,5.06-2.29,7-4.62,1-1.15,1.89-2.17,1.86-3.78a5,5,0,0,0-1.82-3.27c-1.7-1.18-5.53-1.63-7.41-1.13-2.48.67-2.83,4-3,6.27a14.26,14.26,0,0,0,.41,4.69C62.59,44.51,63.8,45.67,65.16,45.17Z" transform="translate(-0.4 0)"/><path class="cls-1" d="M35.66,53.36c-.48.4-.35,1.24-.15,1.84s.82.85,1,1.38a9.72,9.72,0,0,1,.64,3.3c0,.73-.23,1-1.1.93a4.89,4.89,0,0,1-1.66-.42c-.87-.56-1.37-2.33-1.54-3.24a10.68,10.68,0,0,1-.35-3.94,3.66,3.66,0,0,1,2.72-2.89,16,16,0,0,1,3.17-.79,5.46,5.46,0,0,1,3.46.66A3.62,3.62,0,0,1,43.34,53c.07.68.17,1.35.28,2s.58,1.44.13,1.91c-.3.34-1.71,0-2.09-.28-.65-.48-.93-1.75-1.19-2.41-.39-1-.41-.93-1.56-1.22a3.21,3.21,0,0,0-1-.13A7.67,7.67,0,0,0,35.66,53.36Z" transform="translate(-0.4 0)"/><path class="cls-1" d="M109.38,96.49a3.37,3.37,0,0,0,1.27-3c-.15-1.41-.94-2.73-1.25-4.15s-.34-3.71-1.35-3.91c-.46-.92-2-.89-2.86-.69a12.75,12.75,0,0,0-1.66.71,13.07,13.07,0,0,0-1.43.94c-1.1.63-2.36.73-2.54,2.18a3.92,3.92,0,0,0,.93,2.77,7,7,0,0,0,1.49,1c.22.12.43.32.67.46.4.23.78.26,1.15.46,1.06.58,1,2.57,1.89,3.35A3.35,3.35,0,0,0,109.38,96.49Zm-3.69-4.61c0-.88-1.22-2.22-1.58-3-1-2.38,3.41-.94,3.43,1.18a9.47,9.47,0,0,1-.15,2.23c-.07.46-.18,2-.46,2.25A3.66,3.66,0,0,1,105.69,91.88Z" transform="translate(-0.4 0)"/></svg>