<svg id="Isolation_Mode" data-name="Isolation Mode" xmlns="http://www.w3.org/2000/svg" viewBox="0 0 17.17 17.17"><defs><style>.cls-1{fill:#117bff;}.cls-2{fill:#f5f5f5;}</style></defs><title>checkmark_blue</title><circle class="cls-1" cx="8.58" cy="8.58" r="8.58"/><path class="cls-2" d="M8.67,1.84a6.82,6.82,0,1,0,6.81,6.81A6.81,6.81,0,0,0,8.67,1.84Zm0,1.32A5.5,5.5,0,1,1,3.18,8.65,5.49,5.49,0,0,1,8.67,3.16m3.85,3.58-.62-.62a.33.33,0,0,0-.47,0L7.55,10,5.91,8.31a.33.33,0,0,0-.47,0l-.62.62a.32.32,0,0,0,0,.46l2.49,2.52a.34.34,0,0,0,.47,0l4.74-4.7a.33.33,0,0,0,0-.47Z" transform="translate(-0.08 -0.07)"/></svg>