<svg id="Isolation_Mode" data-name="Isolation Mode" xmlns="http://www.w3.org/2000/svg" viewBox="0 0 17.05 17.05"><defs><style>.cls-1{fill:#4a544f;}</style></defs><title>coin</title><path class="cls-1" d="M8.67.13a8.53,8.53,0,1,0,8.52,8.52A8.52,8.52,0,0,0,8.67.13Zm0,15.4a6.88,6.88,0,1,1,6.87-6.88A6.88,6.88,0,0,1,8.67,15.53Z" transform="translate(-0.14 -0.13)"/><path class="cls-1" d="M8.67,3.35A5.3,5.3,0,1,0,14,8.65,5.3,5.3,0,0,0,8.67,3.35Zm0,9.58a4.28,4.28,0,1,1,4.27-4.28A4.28,4.28,0,0,1,8.67,12.93Z" transform="translate(-0.14 -0.13)"/><path class="cls-1" d="M8.91,6.35l.58,1.18a.27.27,0,0,0,.21.15l1.3.19a.28.28,0,0,1,.15.47l-.94.91a.31.31,0,0,0-.08.24l.23,1.3a.28.28,0,0,1-.4.29L8.8,10.47a.24.24,0,0,0-.26,0l-1.16.61a.28.28,0,0,1-.4-.29l.22-1.3a.25.25,0,0,0-.08-.24l-.94-.91a.28.28,0,0,1,.16-.47l1.29-.19a.27.27,0,0,0,.21-.15l.58-1.18A.28.28,0,0,1,8.91,6.35Z" transform="translate(-0.14 -0.13)"/></svg>