<svg width="441" height="337" viewBox="0 0 441 337" fill="none" xmlns="http://www.w3.org/2000/svg">
<g clip-path="url(#clip0)">
<path d="M298.796 27.3665C270.731 27.3286 243.285 35.5955 219.934 51.1205C196.582 66.6455 178.375 88.7306 167.618 114.58C156.86 140.429 154.035 168.88 159.501 196.331C164.967 223.782 178.478 248.998 198.323 268.788C218.169 288.577 243.456 302.05 270.984 307.501C298.512 312.952 327.043 310.135 352.964 299.407C378.886 288.68 401.033 270.524 416.602 247.238C432.171 223.952 440.461 196.583 440.423 168.596C440.372 131.155 425.434 95.2625 398.885 68.7877C372.336 42.3129 336.342 27.4171 298.796 27.3665V27.3665ZM298.796 282.652C275.983 282.842 253.627 276.269 234.566 263.768C215.505 251.267 200.598 233.402 191.736 212.438C182.873 191.475 180.456 168.359 184.79 146.023C189.123 123.687 200.013 103.138 216.078 86.9846C232.142 70.8307 252.656 59.7996 275.018 55.2911C297.379 50.7826 320.58 52.9999 341.676 61.6616C362.771 70.3233 380.811 85.039 393.506 103.941C406.201 122.844 412.979 145.081 412.98 167.831C413.107 182.864 410.247 197.774 404.565 211.699C398.884 225.624 390.493 238.29 379.878 248.964C369.262 259.639 356.632 268.112 342.715 273.894C328.799 279.676 313.872 282.653 298.796 282.652V282.652Z" fill="#DA2931"/>
<path d="M298.797 80.7573C281.321 80.7194 264.227 85.8549 249.681 95.5132C235.135 105.171 223.79 118.918 217.085 135.011C210.38 151.104 208.615 168.82 212.016 185.913C215.416 203.007 223.827 218.71 236.184 231.033C248.542 243.356 264.289 251.743 281.43 255.134C298.572 258.525 316.338 256.765 332.476 250.079C348.614 243.392 362.399 232.08 372.085 217.574C381.77 203.068 386.92 186.022 386.882 168.595C386.831 145.315 377.535 123.002 361.027 106.54C344.518 90.0784 322.143 80.8078 298.797 80.7573V80.7573ZM298.797 239.593C284.708 239.631 270.923 235.499 259.19 227.721C247.456 219.943 238.301 208.868 232.883 195.898C227.465 182.928 226.027 168.647 228.753 154.862C231.478 141.077 238.244 128.409 248.193 118.461C258.143 108.512 270.829 101.731 284.645 98.9762C298.461 96.2212 312.786 97.616 325.807 102.984C338.827 108.352 349.958 117.452 357.79 129.131C365.622 140.811 369.802 154.545 369.802 168.595C369.802 187.392 362.328 205.422 349.017 218.731C335.706 232.04 317.647 239.542 298.797 239.593V239.593Z" fill="#DA2931"/>
<path d="M303.405 130.513L313 149.65C313.332 150.311 313.82 150.883 314.421 151.316C315.023 151.749 315.72 152.031 316.454 152.138L338.14 155.2C338.988 155.33 339.783 155.694 340.434 156.251C341.086 156.808 341.569 157.535 341.828 158.351C342.088 159.167 342.114 160.038 341.903 160.868C341.692 161.698 341.252 162.452 340.634 163.046L324.898 178.164C324.401 178.695 324.038 179.336 323.837 180.035C323.637 180.734 323.606 181.47 323.747 182.183L327.393 203.233C327.53 204.078 327.427 204.944 327.097 205.734C326.767 206.524 326.222 207.206 325.523 207.704C324.825 208.201 324.001 208.494 323.145 208.549C322.288 208.605 321.433 208.421 320.676 208.017L301.486 197.875C300.818 197.591 300.1 197.444 299.375 197.444C298.649 197.444 297.931 197.591 297.264 197.875L278.073 208.017C277.316 208.421 276.461 208.605 275.605 208.549C274.748 208.494 273.924 208.201 273.226 207.704C272.528 207.206 271.983 206.524 271.652 205.734C271.322 204.944 271.219 204.078 271.356 203.233L275.194 181.8C275.256 181.074 275.169 180.343 274.938 179.653C274.707 178.962 274.337 178.325 273.851 177.781L258.115 162.663C257.685 162.076 257.401 161.396 257.285 160.679C257.17 159.962 257.227 159.227 257.452 158.536C257.677 157.845 258.063 157.217 258.579 156.703C259.094 156.19 259.724 155.806 260.418 155.582L281.911 152.521C282.651 152.43 283.355 152.155 283.959 151.72C284.563 151.285 285.047 150.704 285.365 150.033L294.961 130.896C295.28 130.059 295.838 129.333 296.566 128.807C297.293 128.282 298.159 127.981 299.057 127.94C299.954 127.899 300.844 128.121 301.616 128.578C302.389 129.036 303.011 129.708 303.405 130.513V130.513Z" fill="#DA2931"/>
<path d="M119.751 141.421C119.497 161.58 126.281 181.2 138.942 196.918C139.14 197.129 139.4 197.27 139.685 197.32C139.97 197.371 140.263 197.329 140.522 197.2C140.781 197.071 140.991 196.862 141.121 196.604C141.251 196.347 141.295 196.054 141.244 195.77C139.98 186.769 139.402 177.684 139.517 168.596C139.517 166.491 139.517 164.194 139.517 161.898C137.517 155.254 136.483 148.358 136.447 141.421C136.459 131.006 138.769 120.721 143.213 111.295C147.657 101.87 154.127 93.5348 162.162 86.8814C168.006 77.2806 174.823 68.303 182.504 60.0898C182.718 59.8437 182.848 59.5358 182.875 59.2111C182.902 58.8863 182.824 58.5615 182.652 58.284C182.481 58.0065 182.225 57.7907 181.923 57.668C181.62 57.5454 181.286 57.5222 180.969 57.602C163.182 63.3137 147.672 74.5067 136.67 89.5693C125.669 104.632 119.745 122.787 119.751 141.421V141.421Z" fill="#DA2931"/>
<path d="M160.626 247.631C159.349 245.562 157.566 243.85 155.444 242.656C133.336 230.482 115.855 211.397 105.693 188.341C95.5308 165.286 93.2523 139.538 99.208 115.064C105.164 90.5895 119.023 68.7468 138.652 52.9C158.281 37.0532 182.59 28.0813 207.835 27.3662C211.929 27.3662 215.959 27.3662 219.925 27.3662C222.374 27.6645 224.855 27.1964 227.025 26.0266C237.659 20.7992 248.864 16.8178 260.417 14.1618C260.926 14.1618 261.414 13.9601 261.774 13.6013C262.134 13.2424 262.336 12.7556 262.336 12.2481C262.336 11.7405 262.134 11.2538 261.774 10.8949C261.414 10.536 260.926 10.3344 260.417 10.3344C239.708 1.88079 217.26 -1.46715 194.977 0.574598C161.226 3.85322 129.77 19.0832 106.313 43.5033C82.8555 67.9234 68.9495 99.917 67.116 133.683C65.2825 167.45 75.643 200.754 96.319 227.557C116.995 254.36 146.618 272.888 179.817 279.781C180.241 279.844 180.675 279.776 181.06 279.587C181.445 279.398 181.763 279.096 181.972 278.721C182.18 278.347 182.269 277.918 182.227 277.492C182.185 277.066 182.013 276.663 181.736 276.337C173.677 267.559 166.599 257.934 160.626 247.631V247.631Z" fill="#DA2931"/>
<path d="M53.5423 195.579C53.5573 216.527 61.0631 236.783 74.7109 252.708C88.3587 268.632 107.254 279.182 128.002 282.46C128.256 282.46 128.5 282.36 128.68 282.18C128.86 282.001 128.961 281.757 128.961 281.504C128.961 281.25 128.86 281.006 128.68 280.827C128.5 280.648 128.256 280.547 128.002 280.547C92.0313 260.336 65.2336 227.104 53.1584 187.733C53.7342 190.221 53.5423 192.9 53.5423 195.579Z" fill="#DA2931"/>
<path d="M209.945 300.831H207.067C201.361 300.803 195.66 300.484 189.987 299.874C188.8 299.506 187.528 299.506 186.341 299.874C169.673 306.72 151.627 309.568 133.654 308.188C115.681 306.809 98.2839 301.241 82.863 291.933C67.4422 282.624 54.4284 269.835 44.8692 254.595C35.31 239.355 29.4725 222.09 27.8267 204.19C25.8826 178.671 32.6455 153.247 47.0173 132.044C47.7424 130.952 48.2024 129.707 48.3606 128.408C49.5152 113.081 52.876 97.9995 58.3397 83.6275C58.3397 83.6275 58.3397 81.7138 56.8045 82.4793C26.2665 104.43 5.7238 137.58 -0.304421 174.635C-6.33264 211.69 2.6474 249.615 24.6602 280.067C46.673 310.52 79.9154 331.005 117.074 337.016C154.233 343.028 192.265 334.073 222.803 312.122C223.122 311.936 223.386 311.671 223.57 311.352C223.753 311.033 223.85 310.671 223.85 310.304C223.85 309.936 223.753 309.574 223.57 309.255C223.386 308.936 223.122 308.671 222.803 308.486C218.371 306.187 214.077 303.631 209.945 300.831V300.831Z" fill="#DA2931"/>
</g>
<defs>
<clipPath id="clip0">
<rect width="441" height="337" fill="white"/>
</clipPath>
</defs>
</svg>
