<svg id="Isolation_Mode" data-name="Isolation Mode" xmlns="http://www.w3.org/2000/svg" viewBox="0 0 22.98 17.61"><defs><style>.cls-1{fill:#fdd329;}</style></defs><title>coins_yellow</title><path class="cls-1" d="M16,1.81a7.39,7.39,0,1,0,7.38,7.38A7.39,7.39,0,0,0,16,1.81Zm0,13.34a6,6,0,1,1,5.95-6A5.95,5.95,0,0,1,16,15.15Z" transform="translate(-0.43 -0.38)"/><path class="cls-1" d="M16,4.6a4.6,4.6,0,1,0,4.59,4.59A4.6,4.6,0,0,0,16,4.6Zm0,8.3a3.71,3.71,0,1,1,3.7-3.71A3.71,3.71,0,0,1,16,12.9Z" transform="translate(-0.43 -0.38)"/><path class="cls-1" d="M16.24,7.2l.5,1a.24.24,0,0,0,.18.13l1.13.16a.24.24,0,0,1,.13.41l-.82.79a.24.24,0,0,0-.06.21L17.49,11a.24.24,0,0,1-.35.25l-1-.53a.28.28,0,0,0-.22,0l-1,.53a.24.24,0,0,1-.35-.25l.2-1.12a.28.28,0,0,0-.07-.21l-.82-.79A.24.24,0,0,1,14,8.51l1.12-.16a.23.23,0,0,0,.18-.13l.5-1A.24.24,0,0,1,16.24,7.2Z" transform="translate(-0.43 -0.38)"/><path class="cls-1" d="M6.67,7.77a4.54,4.54,0,0,0,1,2.9.07.07,0,0,0,.12-.06A9.38,9.38,0,0,1,7.7,9.19c0-.11,0-.23,0-.35a3.79,3.79,0,0,1-.16-1.07A3.71,3.71,0,0,1,8.88,4.92a8.58,8.58,0,0,1,1.06-1.4.08.08,0,0,0-.08-.13A4.6,4.6,0,0,0,6.67,7.77Z" transform="translate(-0.43 -0.38)"/><path class="cls-1" d="M8.8,13.32a.75.75,0,0,0-.27-.26A6,6,0,0,1,11.26,1.81q.32,0,.63,0a.62.62,0,0,0,.37-.07A8,8,0,0,1,14,1.12a.1.1,0,0,0,0-.2A7.25,7.25,0,0,0,10.59.41,7.39,7.39,0,0,0,9.8,15a.11.11,0,0,0,.1-.18A8.58,8.58,0,0,1,8.8,13.32Z" transform="translate(-0.43 -0.38)"/><path class="cls-1" d="M3.22,10.6A4.6,4.6,0,0,0,7.1,15.14a.05.05,0,0,0,0-.1,8.38,8.38,0,0,1-3.9-4.85C3.23,10.32,3.22,10.46,3.22,10.6Z" transform="translate(-0.43 -0.38)"/><path class="cls-1" d="M11.37,16.1h-.15a8.69,8.69,0,0,1-.89-.05.32.32,0,0,0-.19,0,6,6,0,0,1-8.26-5,5.93,5.93,0,0,1,1-3.77.44.44,0,0,0,.07-.19,8.37,8.37,0,0,1,.52-2.34s0-.1-.08-.06a7.38,7.38,0,0,0,8.65,12,.11.11,0,0,0,0-.19A6.65,6.65,0,0,1,11.37,16.1Z" transform="translate(-0.43 -0.38)"/></svg>