<svg xmlns="http://www.w3.org/2000/svg" xmlns:xlink="http://www.w3.org/1999/xlink" viewBox="0 0 255.54 255.54"><defs><style>.cls-1{fill:none;}.cls-2{fill:#fed429;}.cls-3{fill:#117cff;}.cls-4{clip-path:url(#clip-path);}.cls-5{fill:#063293;}.cls-6{fill:#72beff;}.cls-7{fill:#bbf472;stroke:#fff;stroke-miterlimit:10;stroke-width:4px;}.cls-8{fill:#57bd12;}.cls-9{fill:#fff;}</style><clipPath id="clip-path"><rect class="cls-1" x="190.9" y="141.4" width="36" height="135" rx="18" transform="translate(-86.53 208.9) rotate(-45)"/></clipPath></defs><title>Asset 1</title><g id="Layer_2" data-name="Layer 2"><g id="Layer_1-2" data-name="Layer 1"><circle class="cls-2" cx="127.63" cy="127.63" r="127.63"/><rect class="cls-3" x="184.53" y="135.03" width="36" height="135" rx="18" transform="translate(-83.89 202.53) rotate(-45)"/><g class="cls-4"><circle class="cls-5" cx="121.27" cy="121.27" r="101.43"/></g><circle class="cls-6" cx="127.63" cy="127.63" r="81.39"/><circle class="cls-7" cx="127.63" cy="127.63" r="56.43"/><path class="cls-8" d="M127.42,167.51c-.25-1-.49-2-.73-3.07q-3-13-6.08-26.11a6.36,6.36,0,0,0-3.72-3.74l-28.61-6.82a1,1,0,0,1-.55-.32l5.17-1.23c8-1.88,16.07-3.74,24.1-5.65a4.71,4.71,0,0,0,1.59-.88,6.79,6.79,0,0,0,2.4-4.17c2.1-9.14,4.31-18.25,6.49-27.37a.77.77,0,0,1,.27-.44c.07.28.15.55.21.83,2.21,9.43,4.38,18.87,6.63,28.29a5,5,0,0,0,3.79,3.82c9.4,2.3,18.82,4.51,28.22,6.76a2.14,2.14,0,0,1,.88.36l-.63.17-28.48,6.67a6.2,6.2,0,0,0-3.82,3.73q-3.37,14.17-6.74,28.35c-.07.27-.14.54-.22.82Zm.14-43.84a4,4,0,1,0,4,3.9A3.9,3.9,0,0,0,127.56,123.67Z"/><path class="cls-8" d="M103.81,103.65c.88.53,1.58.95,2.27,1.39l9.16,5.7c.76.47.77.56.14,1.2-1.17,1.17-2.35,2.33-3.51,3.51-.36.36-.65.5-1,0q-3.47-5.66-6.94-11.32A2.94,2.94,0,0,1,103.81,103.65Z"/><path class="cls-8" d="M151.22,151.52l-4.2-2.6q-3.53-2.19-7-4.39c-.78-.49-.8-.59-.14-1.25,1.17-1.18,2.35-2.33,3.51-3.51.39-.4.66-.38,1,.11l6.9,11.23a1.81,1.81,0,0,1,.12.28Z"/><path class="cls-8" d="M103.64,151.4l2-3.18,5.08-8.18c.52-.83.58-.84,1.29-.13,1.16,1.15,2.3,2.32,3.46,3.46.38.39.42.67-.08,1l-11.31,6.94A1.83,1.83,0,0,1,103.64,151.4Z"/><path class="cls-8" d="M151.47,103.85c-.16.32-.25.52-.36.7q-3.33,5.37-6.67,10.74c-.44.72-.55.74-1.14.14-1.19-1.18-2.36-2.38-3.56-3.57-.38-.38-.4-.66.1-1l11.22-6.9A4.23,4.23,0,0,1,151.47,103.85Z"/><circle class="cls-9" cx="98.28" cy="94.64" r="13.5"/></g></g></svg>