<svg id="Isolation_Mode" data-name="Isolation Mode" xmlns="http://www.w3.org/2000/svg" viewBox="0 0 45.42 29.11"><defs><style>.cls-1{fill:#56bc12;}</style></defs><title>eyes_icon</title><path class="cls-1" d="M41.22,5.64,42.56,4.3A.91.91,0,1,0,41.27,3L39.71,4.57A11.71,11.71,0,0,0,34.6,2.93v-2a.92.92,0,0,0-1.83,0v2a11.71,11.71,0,0,0-5.11,1.64L26.1,3A.91.91,0,1,0,24.81,4.3l1.34,1.34a11.79,11.79,0,0,0-3.93,6.48,11.67,11.67,0,0,0-2.95-3.73l1.34-1.34a.92.92,0,0,0-1.29-1.3L17.76,7.31a11.57,11.57,0,0,0-5.11-1.63v-2a.92.92,0,1,0-1.83,0v2A11.57,11.57,0,0,0,5.71,7.31L4.15,5.75a.92.92,0,0,0-1.29,1.3L4.2,8.39a11.73,11.73,0,1,0,19,11.5,11.73,11.73,0,1,0,18-14.25Zm-29.48,22A10.22,10.22,0,1,1,22,17.38,10.23,10.23,0,0,1,11.74,27.59Zm21.94-2.75A10.21,10.21,0,1,1,43.9,14.63,10.22,10.22,0,0,1,33.68,24.84Z"/><circle class="cls-1" cx="33.68" cy="14.63" r="2.74"/><circle class="cls-1" cx="11.74" cy="17.38" r="2.74"/></svg>