<svg id="Layer_1" data-name="Layer 1" xmlns="http://www.w3.org/2000/svg" viewBox="0 0 512 448"><defs><style>.cls-1{fill:#0d5fdc;}</style></defs><title>gift-icon</title><path class="cls-1" d="M32,416a32,32,0,0,0,32,32H224V288H32Zm256,32H448a32,32,0,0,0,32-32V288H288ZM480,128H437.9A87.19,87.19,0,0,0,448,88,88.13,88.13,0,0,0,360,0c-41.6,0-68.5,21.3-103,68.3C222.5,21.3,195.6,0,154,0A88.13,88.13,0,0,0,66,88a86,86,0,0,0,10.1,40H32A32,32,0,0,0,0,160v80a16,16,0,0,0,16,16H496a16,16,0,0,0,16-16V160A32,32,0,0,0,480,128Zm-326.1,0a40,40,0,0,1,0-80c19.9,0,34.6,3.3,86.1,80ZM360,128H273.9c51.4-76.5,65.7-80,86.1-80a40,40,0,0,1,0,80Z"/></svg>