<svg id="Layer_1" data-name="Layer 1" xmlns="http://www.w3.org/2000/svg" viewBox="0 0 576.05 447.95"><defs><style>.cls-1{fill:#117bff;}</style></defs><title>home-icon</title><path class="cls-1" d="M280.37,116.21,96,268.06V432a16,16,0,0,0,16,16l112.06-.29a16,16,0,0,0,15.92-16V336a16,16,0,0,1,16-16h64a16,16,0,0,1,16,16v95.64a16,16,0,0,0,15.95,16.05H352L464,448a16,16,0,0,0,16-16V268L295.67,116.21a12.19,12.19,0,0,0-15.3,0ZM571.6,219.42,488,150.51V12A12,12,0,0,0,476,0H420a12,12,0,0,0-12,12V84.61L318.47,11a48,48,0,0,0-61,0L4.34,219.42a12,12,0,0,0-1.6,16.89h0l25.5,31A12,12,0,0,0,45.13,269l0,0L280.37,75.21a12.19,12.19,0,0,1,15.3,0L530.9,269a12,12,0,0,0,16.9-1.59h0l25.5-31a12,12,0,0,0-1.65-16.89l0,0Z" transform="translate(0.02)"/></svg>