<svg id="Layer_1" data-name="Layer 1" xmlns="http://www.w3.org/2000/svg" viewBox="0 0 64.71 64.71"><defs><style>.cls-1{fill:#9dea4f;}.cls-2{fill:#73dc18;}.cls-3{fill:#0947b8;}.cls-4{fill:#d8fca2;}.cls-5{fill:#fed429;}.cls-6{fill:#484f59;}</style></defs><title>qr-icon</title><circle class="cls-1" cx="32.35" cy="32.35" r="32.35"/><path class="cls-2" d="M9.48,55.23A32.35,32.35,0,0,0,64.11,38.55l-.13,0h0L60.2,36.2a2.78,2.78,0,0,0-2.84,0l-3.78,2.3a2.74,2.74,0,0,1-2.82,0L47,36.2a2.79,2.79,0,0,0-1.42-.39,2.73,2.73,0,0,0-1.41.39l-3.78,2.3a2.79,2.79,0,0,1-1.42.39,2.73,2.73,0,0,1-1.41-.39l-3.78-2.3A2.73,2.73,0,0,0,32,35.83a2.87,2.87,0,0,0-1.05.37l-3.78,2.3a2.76,2.76,0,0,1-2.83,0l-3.78-2.3a2.73,2.73,0,0,0-1.41-.39,2.79,2.79,0,0,0-1.42.39l-3.78,2.3a2.73,2.73,0,0,1-2.14.29,2.54,2.54,0,0,1-.68-.29l-1.8-1.09-2-1.21a2.94,2.94,0,0,0-1-.37,2.73,2.73,0,0,0-1.78.37L.72,38.5l-.12.06A32.11,32.11,0,0,0,9.48,55.23Z"/><path class="cls-3" d="M47.29,12.35a3.55,3.55,0,0,0-3.54-3.54H21a3.54,3.54,0,0,0-3.54,3.54V48.52H47.29Z"/><path class="cls-4" d="M18.86,48.52V12.35a2.11,2.11,0,0,1,2.1-2.1H43.75a2.11,2.11,0,0,1,2.1,2.1V48.52Z"/><path class="cls-3" d="M21,57.16H43.75a3.55,3.55,0,0,0,3.54-3.54v-5.1H17.42v5.1A3.54,3.54,0,0,0,21,57.16Z"/><circle class="cls-5" cx="32.35" cy="52.7" r="2.51"/><path class="cls-6" d="M29.53,19.68V25H24.24v-5.3h5.29m1.14-1.13H23.1v7.56h7.57V18.55Z"/><rect class="cls-6" x="25.22" y="20.72" width="3.33" height="3.33"/><rect class="cls-6" x="31.68" y="18.55" width="1.19" height="3.31"/><rect class="cls-6" x="24.29" y="31.42" width="1.19" height="3.31"/><rect class="cls-6" x="25.5" y="29.76" width="1.19" height="3.31"/><rect class="cls-6" x="33.85" y="18.55" width="7.7" height="1.19"/><rect class="cls-6" x="28.75" y="28.59" width="4.71" height="1.19"/><rect class="cls-6" x="30.67" y="27.41" width="4.71" height="1.19"/><rect class="cls-6" x="32.58" y="26.3" width="4.71" height="1.19"/><rect class="cls-6" x="34.94" y="19.73" width="2.17" height="0.98"/><rect class="cls-6" x="24.29" y="36.02" width="2.17" height="0.98"/><rect class="cls-6" x="37.11" y="21.85" width="4.44" height="4.44"/><rect class="cls-6" x="27.89" y="31.39" width="4.44" height="4.44"/><path class="cls-6" d="M40.46,32.56v3.3h-3.3v-3.3h3.3m1.14-1.14H36V37H41.6V31.42Z"/><rect class="cls-6" x="38.22" y="33.61" width="1.19" height="1.19"/><rect class="cls-6" x="25.22" y="27.41" width="1.19" height="1.19"/><rect class="cls-6" x="26.46" y="28.59" width="1.19" height="1.19"/><rect class="cls-6" x="32.33" y="35.81" width="1.19" height="1.19"/><rect class="cls-6" x="33.46" y="34.62" width="1.19" height="1.19"/><rect class="cls-6" x="33.46" y="32.42" width="1.19" height="1.19"/><rect class="cls-6" x="34.74" y="30.23" width="1.19" height="1.19"/><rect class="cls-6" x="23.1" y="27.41" width="1.19" height="9.59"/><rect class="cls-6" x="34.94" y="23.13" width="1.19" height="1.19"/><rect class="cls-6" x="33.75" y="21.85" width="1.19" height="1.19"/><rect class="cls-6" x="31.68" y="23.13" width="1.19" height="1.19"/><rect class="cls-6" x="31.68" y="25.18" width="1.19" height="1.19"/><rect class="cls-6" x="37.28" y="28.26" width="1.19" height="1.19"/><rect class="cls-6" x="40.36" y="27.41" width="1.19" height="1.19"/><rect class="cls-6" x="40.36" y="29.41" width="1.19" height="1.19"/><rect class="cls-6" x="32.87" y="20.66" width="1.19" height="1.19"/></svg>