<svg id="Isolation_Mode" data-name="Isolation Mode" xmlns="http://www.w3.org/2000/svg" viewBox="0 0 17.45 16.69"><defs><style>.cls-1{fill:#fdd329;}</style></defs><title>star_icon</title><path class="cls-1" d="M9.84.83l2,4a1,1,0,0,0,.7.51L16.93,6a.93.93,0,0,1,.51,1.59l-3.19,3.11a1,1,0,0,0-.27.83l.75,4.4a.93.93,0,0,1-1.35,1l-4-2.08a.93.93,0,0,0-.86,0L4.62,16.89a.94.94,0,0,1-1.36-1L4,11.51a1,1,0,0,0-.27-.83L.56,7.57A.93.93,0,0,1,1.07,6l4.42-.64a1,1,0,0,0,.7-.51l2-4A.94.94,0,0,1,9.84.83Z" transform="translate(-0.27 -0.31)"/></svg>