<svg id="Layer_1" data-name="Layer 1" xmlns="http://www.w3.org/2000/svg" viewBox="0 0 262.39 155.56"><defs><style>.cls-1{fill:#063192;}</style></defs><title>trivia_bgrd</title><path class="cls-1" d="M188.73,77.38a7.82,7.82,0,1,0,8.55,7A7.81,7.81,0,0,0,188.73,77.38Z"/><path class="cls-1" d="M144.86,130.69l-1.59,5.69a6.74,6.74,0,0,0,4.68,8.3l2.1.58a6.73,6.73,0,0,0,8.3-4.68,20.87,20.87,0,1,0-22.45-26.34v.05a5.23,5.23,0,0,0,3.69,6.39l5,1.39a5.22,5.22,0,0,0,6.43-3.63,5.22,5.22,0,0,1,6.56-3.59,5.29,5.29,0,0,1,3.52,6.27,5.21,5.21,0,0,1-4.85,3.93,5,5,0,0,1-1.61-.18l.39.1A8.22,8.22,0,0,0,144.86,130.69Z"/><path class="cls-1" d="M115.22,66a20.87,20.87,0,0,0-41.41,5.1v.06a5.25,5.25,0,0,0,5.76,4.62l5.14-.51a5.22,5.22,0,0,0,4.68-5.7A5.21,5.21,0,0,1,94.2,63.8a5.22,5.22,0,0,1,2.45,10,5,5,0,0,1-1.56.4l.4,0a8.23,8.23,0,0,0-7.38,9L88.69,89a6.74,6.74,0,0,0,7.37,6l2.17-.21a6.74,6.74,0,0,0,6-7.37A20.87,20.87,0,0,0,115.22,66Z"/><path class="cls-1" d="M206.5,45.21a20.87,20.87,0,0,0-41.42,5.11v.06A5.24,5.24,0,0,0,170.84,55l5.14-.51a5.23,5.23,0,0,0,4.68-5.71,5.21,5.21,0,0,1,4.82-5.71,5.22,5.22,0,0,1,2.45,10,5.11,5.11,0,0,1-1.57.4l.4,0a8.23,8.23,0,0,0-7.38,9L180,68.3a6.75,6.75,0,0,0,7.37,6l2.17-.22a6.73,6.73,0,0,0,6-7.36A20.88,20.88,0,0,0,206.5,45.21Z"/><path class="cls-1" d="M222.79,112.08l0,0a5.23,5.23,0,0,0,.81,7.33l4,3.27a5.22,5.22,0,0,0,7.34-.74h0a5.23,5.23,0,0,1,7.45-.65,5.29,5.29,0,0,1,.71,7.16,5.22,5.22,0,0,1-6,1.65,4.94,4.94,0,0,1-1.39-.82l.31.26a8.23,8.23,0,0,0-11.58,1.16l-3.74,4.57a6.74,6.74,0,0,0,1,9.48l1.68,1.38a6.73,6.73,0,0,0,9.48-.95,20.87,20.87,0,1,0-10-33.14Z"/><circle class="cls-1" cx="251.47" cy="57.86" r="7.83" transform="translate(157.05 298) rotate(-81.49)"/><circle class="cls-1" cx="98.22" cy="105.9" r="7.83" transform="translate(-40.04 147.66) rotate(-63.96)"/><path class="cls-1" d="M220.44,147.93a7.83,7.83,0,0,0-12.62,7.63h15.33A7.82,7.82,0,0,0,220.44,147.93Z"/><path class="cls-1" d="M148.16,148a7.82,7.82,0,0,0-9.64,5.44,7.58,7.58,0,0,0-.28,2.1h15.64A7.82,7.82,0,0,0,148.16,148Z"/><path class="cls-1" d="M262.39,1.74A20.29,20.29,0,0,0,257,.21a20.87,20.87,0,0,0-23.75,19.21v0A5.25,5.25,0,0,0,238.13,25l5.14.36a5.22,5.22,0,0,0,5.57-4.84,5.22,5.22,0,1,1,6.45,5.43,5.35,5.35,0,0,1-1.61.14l.4,0a8.23,8.23,0,0,0-8.78,7.64l-.41,5.89a6.74,6.74,0,0,0,6.25,7.19l2.18.15a6.74,6.74,0,0,0,7.19-6.25c.64-.21,1.27-.46,1.88-.73Z"/><circle class="cls-1" cx="37.68" cy="147.66" r="7.83" transform="translate(-10.01 2.92) rotate(-3.92)"/><path class="cls-1" d="M49.86,106a20.87,20.87,0,0,0-40.53,10v0a5.24,5.24,0,0,0,6.26,3.91l5-1.11a5.22,5.22,0,0,0,4-6.22A5.22,5.22,0,1,1,32.34,116a5.16,5.16,0,0,1-1.5.59l.39-.09A8.23,8.23,0,0,0,25,126.27L26.23,132a6.73,6.73,0,0,0,8,5.14l2.13-.47a6.74,6.74,0,0,0,5.14-8h0A20.87,20.87,0,0,0,49.86,106Z"/><circle class="cls-1" cx="32.24" cy="49.61" r="7.83" transform="translate(-23.49 29.73) rotate(-37.35)"/><path class="cls-1" d="M0,34.76l0,0,4-3.26a5.22,5.22,0,0,0,.76-7.34,5.22,5.22,0,0,1,.86-7.43,5.22,5.22,0,0,1,6.48,8.19l.31-.26a8.24,8.24,0,0,0-1.2,11.58L15,40.8a6.74,6.74,0,0,0,9.48,1l1.69-1.38a6.74,6.74,0,0,0,1-9.48A20.87,20.87,0,0,0,0,2Z"/></svg>