<svg id="Layer_1" data-name="Layer 1" xmlns="http://www.w3.org/2000/svg" viewBox="0 0 496 496"><defs><style>.cls-1{fill:#fdd329;}</style></defs><title>wrong-icon</title><path class="cls-1" d="M256,8C119,8,8,119,8,256S119,504,256,504,504,393,504,256,393,8,256,8Zm0,448A200,200,0,1,1,456,256,199.94,199.94,0,0,1,256,456ZM357.8,193.8,295.6,256l62.2,62.2a12,12,0,0,1,0,17l-22.6,22.6a12,12,0,0,1-17,0L256,295.6l-62.2,62.2a12,12,0,0,1-17,0l-22.6-22.6a12,12,0,0,1,0-17L216.4,256l-62.2-62.2a12,12,0,0,1,0-17l22.6-22.6a12,12,0,0,1,17,0L256,216.4l62.2-62.2a12,12,0,0,1,17,0l22.6,22.6a12,12,0,0,1,0,17Z" transform="translate(-8 -8)"/></svg>