<svg id="Layer_1" data-name="Layer 1" xmlns="http://www.w3.org/2000/svg" viewBox="0 0 154.81 51.58"><defs><style>.cls-1{fill:#0d5fdc;}</style></defs><title>zigzag_darkBlue</title><path class="cls-1" d="M0,46.43a4.59,4.59,0,0,1,2.37.66l6.32,3.83a4.6,4.6,0,0,0,4.75,0l6.33-3.83a4.52,4.52,0,0,1,2.72-.64l.23,0a.86.86,0,0,1,.17,0c.15,0,.3,0,.44.09h0a4.29,4.29,0,0,1,1.12.49h0l6.33,3.83a4.59,4.59,0,0,0,4.74,0l6.32-3.83a4.57,4.57,0,0,1,4.73,0l6.33,3.83a4.53,4.53,0,0,0,2.36.66,4.59,4.59,0,0,0,2.37-.66L64,47.09a4.53,4.53,0,0,1,2.36-.66,4.59,4.59,0,0,1,2.37.66l6.32,3.83a4.58,4.58,0,0,0,4.74,0l6.32-3.83a4.57,4.57,0,0,1,4.73,0l6.33,3.83a4.53,4.53,0,0,0,2.36.66,4.59,4.59,0,0,0,2.37-.66l6.32-3.83a4.51,4.51,0,0,1,4.73,0l3,1.82,3.32,2a4.48,4.48,0,0,0,1.75.62,4.56,4.56,0,0,0,3-.62l6.33-3.83a4.53,4.53,0,0,1,3-.62,4.59,4.59,0,0,1,1.76.62l6.32,3.83a4.56,4.56,0,0,0,3,.62,4.48,4.48,0,0,0,1.75-.62l6.33-3.83a4.53,4.53,0,0,1,2.36-.66V0H0V46.43Z"/></svg>