<svg id="Layer_1" data-name="Layer 1" xmlns="http://www.w3.org/2000/svg" viewBox="0 0 154.81 62.9"><defs><style>.cls-1{fill:#fdd329;}</style></defs><title>zigzag-yellow</title><path class="cls-1" d="M154.81,5.16a4.5,4.5,0,0,1-2.37-.67L146.11.66A4.53,4.53,0,0,0,143.75,0a4.6,4.6,0,0,0-2.38.66L135,4.5a4.52,4.52,0,0,1-2.72.63l-.23,0a.86.86,0,0,1-.17,0,3.12,3.12,0,0,1-.44-.09h0a4.29,4.29,0,0,1-1.12-.49h0L124,.66a4.59,4.59,0,0,0-4.74,0l-6.32,3.83a4.5,4.5,0,0,1-2.37.67,4.55,4.55,0,0,1-2.36-.66L101.87.66A4.53,4.53,0,0,0,99.51,0a4.59,4.59,0,0,0-2.37.66L90.81,4.49a4.45,4.45,0,0,1-2.36.67,4.5,4.5,0,0,1-2.37-.67L79.76.66A4.58,4.58,0,0,0,75,.66L68.7,4.49a4.52,4.52,0,0,1-4.73,0L57.64.66A4.53,4.53,0,0,0,55.28,0a4.59,4.59,0,0,0-2.37.66L46.59,4.49A4.54,4.54,0,0,1,43,5a4.6,4.6,0,0,1-1.14-.5l-3-1.81-3.32-2A4.48,4.48,0,0,0,33.78,0a4.56,4.56,0,0,0-3,.62L24.47,4.49a4.47,4.47,0,0,1-3,.62,4.43,4.43,0,0,1-1.76-.62L13.42.66a4.56,4.56,0,0,0-3-.62A4.48,4.48,0,0,0,8.69.66L2.36,4.49A4.63,4.63,0,0,1,0,5.16V62.9H154.81V5.16Z" transform="translate(0 0)"/></svg>