<svg width="155" height="52" viewBox="0 0 155 52" fill="none" xmlns="http://www.w3.org/2000/svg">
<g clip-path="url(#clip0)">
<path d="M154.81 5.16002C153.973 5.16142 153.152 4.9294 152.44 4.49002L146.11 0.660016C145.399 0.227375 144.582 -0.000980886 143.75 1.58623e-05C142.911 -0.00105679 142.088 0.22717 141.37 0.660016L135 4.50002C134.183 4.99179 133.23 5.21232 132.28 5.13002C132.203 5.1354 132.127 5.1354 132.05 5.13002C131.993 5.13563 131.937 5.13563 131.88 5.13002C131.731 5.11062 131.584 5.08055 131.44 5.04002V5.04002C131.045 4.93099 130.668 4.76598 130.32 4.55002L124 0.660016C123.285 0.228736 122.465 0.000817306 121.63 0.000817306C120.795 0.000817306 119.975 0.228736 119.26 0.660016L112.94 4.49002C112.228 4.9294 111.407 5.16142 110.57 5.16002C109.738 5.15998 108.922 4.9317 108.21 4.50002L101.87 0.660016C101.159 0.227375 100.342 -0.000980886 99.51 1.58623e-05C98.6747 0.000257739 97.8552 0.228455 97.14 0.660016L90.81 4.49002C90.1016 4.93006 89.2839 5.16222 88.45 5.16002C87.6131 5.16142 86.7923 4.9294 86.08 4.49002L79.76 0.660016C79.0428 0.223788 78.2195 -0.00692907 77.38 -0.00692907C76.5405 -0.00692907 75.7172 0.223788 75 0.660016L68.7 4.49002C67.9885 4.92686 67.1699 5.15811 66.335 5.15811C65.5001 5.15811 64.6815 4.92686 63.97 4.49002L57.64 0.660016C56.9289 0.227375 56.1124 -0.000980886 55.28 1.58623e-05C54.4447 0.000257739 53.6252 0.228455 52.91 0.660016L46.59 4.49002C46.0588 4.81713 45.4658 5.03124 44.8481 5.11898C44.2305 5.20673 43.6013 5.16623 43 5.00002C42.5991 4.88577 42.2156 4.71757 41.86 4.50002L38.86 2.69002L35.54 0.690016C35.0091 0.337447 34.4091 0.102211 33.78 1.58623e-05C32.7384 -0.14545 31.6786 0.0735838 30.78 0.620016L24.47 4.49002C23.5742 5.04359 22.5118 5.26316 21.47 5.11002C20.846 5.03065 20.246 4.8193 19.71 4.49002L13.42 0.660016C12.5214 0.113584 11.4616 -0.10545 10.42 0.0400159C9.80669 0.124914 9.21763 0.336022 8.69 0.660016L2.36 4.49002C1.64789 4.92149 0.8326 5.15295 0 5.16002L0 51.58H154.81V5.16002Z" fill="#FDD329"/>
</g>
<defs>
<clipPath id="clip0">
<rect width="154.81" height="51.58" fill="white"/>
</clipPath>
</defs>
</svg>
