<svg width="370" height="124" viewBox="0 0 370 124" fill="none" xmlns="http://www.w3.org/2000/svg">
<g clip-path="url(#clip0)">
<path d="M369.61 12.31C367.631 12.3013 365.692 11.7552 364 10.73L348.9 1.58001C347.193 0.546667 345.235 0.000377029 343.24 0.000377029C341.244 0.000377029 339.287 0.546667 337.58 1.58001L322.47 10.73C320.515 11.9105 318.236 12.4425 315.96 12.25C315.777 12.2599 315.593 12.2599 315.41 12.25L315 12.1C314.65 12.04 314.3 11.98 314 11.89H313.93C312.989 11.625 312.087 11.2348 311.25 10.73V10.73L296 1.58001C294.295 0.546477 292.339 2.27764e-05 290.345 2.27764e-05C288.351 2.27764e-05 286.395 0.546477 284.69 1.58001L269.58 10.73C267.897 11.7518 265.969 12.2979 264 12.31C262.011 12.3098 260.06 11.7633 258.36 10.73L243.23 1.58001C241.525 0.546477 239.569 2.27764e-05 237.575 2.27764e-05C235.581 2.27764e-05 233.625 0.546477 231.92 1.58001L216.82 10.73C215.117 11.7636 213.162 12.3101 211.17 12.31C209.181 12.3073 207.231 11.7609 205.53 10.73L190.43 1.58001C188.724 0.547543 186.769 0.00171426 184.775 0.00171426C182.781 0.00171426 180.826 0.547543 179.12 1.58001L164 10.73C162.297 11.7648 160.343 12.3121 158.35 12.3121C156.357 12.3121 154.403 11.7648 152.7 10.73L137.6 1.58001C135.897 0.546285 133.942 -0.000335693 131.95 -0.000335693C129.958 -0.000335693 128.003 0.546285 126.3 1.58001L111.2 10.73C109.929 11.4998 108.514 12.0024 107.043 12.207C105.571 12.4116 104.073 12.3139 102.64 11.92C101.677 11.6492 100.755 11.2489 99.9 10.73L92.77 6.39001L84.83 1.58001C83.1267 0.546285 81.1724 -0.000335693 79.18 -0.000335693C77.1876 -0.000335693 75.2333 0.546285 73.53 1.58001L58.43 10.73C56.3004 12.0254 53.7896 12.548 51.32 12.21C49.8401 12.0077 48.4175 11.504 47.14 10.73L32 1.58001C30.2967 0.546285 28.3424 -0.000335693 26.35 -0.000335693C24.3576 -0.000335693 22.4033 0.546285 20.7 1.58001L5.64 10.73C3.93977 11.7623 1.98908 12.3088 0 12.31L0 123.16H369.62V12.31H369.61Z" fill="#BAF471"/>
</g>
<defs>
<clipPath id="clip0">
<rect width="369.62" height="123.15" fill="white"/>
</clipPath>
</defs>
</svg>
