<svg id="Layer_1" data-name="Layer 1" xmlns="http://www.w3.org/2000/svg" viewBox="0 0 363 133"><defs><style>.cls-1{fill:#343535;}.cls-2{fill:#57bd12;}.cls-3{fill:#117cff;}.cls-4{fill:#ffd428;}.cls-5{fill:#ff413a;}.cls-6{fill:#0eae82;}</style></defs><title>zooGo_logo</title><path class="cls-1" d="M111.36,35.75a3,3,0,0,1-3-3v-18a3,3,0,0,1,6,0v18A3,3,0,0,1,111.36,35.75Z" transform="translate(-3.36 -2.75)"/><path class="cls-1" d="M102.36,44.75a3,3,0,0,1-2.12-.88l-18-18a3,3,0,0,1,4.24-4.24l18,18a3,3,0,0,1-2.12,5.12Z" transform="translate(-3.36 -2.75)"/><path class="cls-1" d="M120.36,44.75a3,3,0,0,1-2.12-.88,3,3,0,0,1,0-4.24l18-18a3,3,0,1,1,4.24,4.24l-18,18A3,3,0,0,1,120.36,44.75Z" transform="translate(-3.36 -2.75)"/><path class="cls-1" d="M183.36,26.75a3,3,0,0,1-3-3v-18a3,3,0,0,1,6,0v18A3,3,0,0,1,183.36,26.75Z" transform="translate(-3.36 -2.75)"/><path class="cls-1" d="M174.36,35.75a3,3,0,0,1-2.12-.88l-18-18a3,3,0,0,1,4.24-4.24l18,18a3,3,0,0,1-2.12,5.12Z" transform="translate(-3.36 -2.75)"/><path class="cls-1" d="M192.36,35.75a3,3,0,0,1-2.12-.88,3,3,0,0,1,0-4.24l18-18a3,3,0,1,1,4.24,4.24l-18,18A3,3,0,0,1,192.36,35.75Z" transform="translate(-3.36 -2.75)"/><path class="cls-2" d="M58.26,14.75H16.86a13.49,13.49,0,0,0-13.5,13.5h0a13.49,13.49,0,0,0,13.5,13.5h15.3l-20.8,13a17,17,0,0,0-8,14.44v.54a17,17,0,0,0,17,17H61.86a13.5,13.5,0,0,0,13.5-13.5h0a13.5,13.5,0,0,0-13.5-13.5H46.56l20.76-13a17.09,17.09,0,0,0,8-14.5v-.42A17.11,17.11,0,0,0,58.26,14.75Z" transform="translate(-3.36 -2.75)"/><circle class="cls-3" cx="108" cy="57" r="36"/><circle class="cls-4" cx="108" cy="57" r="9"/><circle class="cls-5" cx="180" cy="48" r="36"/><circle class="cls-4" cx="180" cy="48" r="9"/><circle class="cls-6" cx="223" cy="75" r="9"/><path class="cls-1" d="M338.19,92.92a4,4,0,0,0-5.66,0c-.08.08-8,7.83-24.17,7.83a51.39,51.39,0,0,1-14.63-2.2,104.59,104.59,0,0,0,.63-11.8v-45a4,4,0,0,0-8,0v3.86a27,27,0,1,0,0,28.28V86.75c0,2.54-.1,5.77-.43,9.31-6.57-2.18-13.47-4.31-22.57-4.31-9.27,0-14.92,3.7-18,6.8a21.33,21.33,0,0,0-6.23,15.2c0,10.93,8.33,22,24.25,22,14.78,0,25-10.63,29.08-29.25a58.47,58.47,0,0,0,15.92,2.25c19.43,0,29.41-9.76,29.83-10.17A4,4,0,0,0,338.19,92.92ZM263.36,77.75a18,18,0,1,1,18-18A18,18,0,0,1,263.36,77.75Zm0,50c-11.23,0-16.25-7-16.25-14s5-14,16.25-14c8.35,0,14.61,2.09,21.23,4.29l.18.06C282.41,115.86,276.73,127.75,263.36,127.75Z" transform="translate(-3.36 -2.75)"/><path class="cls-1" d="M364.16,38.18A4,4,0,0,0,358.79,40a35.94,35.94,0,0,1-7.53,9.36,27,27,0,1,0,2.1,10.44c0-.61,0-1.21-.07-1.81a43,43,0,0,0,12.65-14.4A4,4,0,0,0,364.16,38.18Zm-37.8,3.57a18,18,0,0,1,17.11,12.43,21.7,21.7,0,0,1-8.11,1.57c-13,0-20.64-5-23.22-7A18,18,0,0,1,326.36,41.75Zm0,36a18,18,0,0,1-17.64-21.62c4.39,3,13.28,7.62,26.64,7.62a30,30,0,0,0,8.77-1.29A18,18,0,0,1,326.36,77.75Z" transform="translate(-3.36 -2.75)"/></svg>